<?xml version="1.0" standalone="no"?>
<!DOCTYPE svg PUBLIC "-//W3C//DTD SVG 20010904//EN"
 "http://www.w3.org/TR/2001/REC-SVG-20010904/DTD/svg10.dtd">
<svg version="1.0" xmlns="http://www.w3.org/2000/svg"
 width="200.000000pt" height="200.000000pt" viewBox="0 0 200.000000 200.000000"
 preserveAspectRatio="xMidYMid meet">

<g transform="translate(0.000000,200.000000) scale(0.100000,-0.100000)"
fill="#000000" stroke="none">
<path d="M112 1053 l3 -838 845 0 845 0 3 838 2 837 -850 0 -850 0 2 -837z
m920 680 c17 -15 18 -42 18 -453 0 -377 -2 -439 -15 -450 -24 -20 -67 -15 -87
10 -17 21 -18 52 -18 446 0 411 1 425 20 444 24 24 57 26 82 3z m518 -1138 c3
-36 8 -55 13 -47 5 6 26 12 49 12 32 0 47 -7 74 -34 34 -34 35 -37 32 -103 -2
-55 -6 -68 -20 -71 -16 -3 -18 5 -18 58 0 51 -4 65 -25 85 -28 29 -51 31 -83
9 -19 -13 -22 -24 -22 -78 0 -67 -15 -97 -38 -74 -13 13 -17 289 -5 302 4 4
14 5 23 4 11 -2 16 -20 20 -63z m-1222 28 c5 -17 -26 -29 -40 -15 -6 6 -7 15
-3 22 9 14 37 9 43 -7z m586 1 c3 -9 6 -26 6 -39 0 -18 6 -24 28 -27 16 -2 27
-9 27 -18 0 -9 -11 -16 -27 -18 -27 -3 -28 -5 -28 -68 l0 -66 29 7 c33 7 49
-8 31 -30 -18 -21 -67 -18 -90 5 -18 18 -20 33 -20 138 0 65 3 122 7 125 11
12 31 7 37 -9z m-586 -163 c3 -98 -8 -132 -34 -110 -10 8 -14 36 -14 94 0 95
6 117 29 113 13 -3 17 -20 19 -97z m77 89 c4 -7 12 -7 25 0 38 20 80 12 116
-24 32 -32 34 -38 34 -105 0 -64 -2 -71 -20 -71 -18 0 -20 7 -20 60 0 51 -4
65 -25 85 -29 30 -58 32 -85 5 -15 -15 -20 -33 -20 -78 0 -62 -14 -89 -37 -71
-14 12 -19 162 -7 193 7 18 30 21 39 6z m284 -63 l35 -67 35 67 c34 64 63 87
68 53 3 -19 -89 -193 -102 -193 -13 0 -104 172 -105 196 0 39 34 10 69 -56z
m512 45 c22 -19 31 -37 32 -62 l2 -35 -84 -3 c-82 -3 -83 -3 -66 -22 19 -21
69 -27 80 -10 11 18 47 12 43 -7 -5 -28 -64 -53 -100 -42 -66 19 -98 74 -78
135 25 75 112 99 171 46z m243 7 c21 -16 24 -24 15 -35 -9 -11 -15 -11 -40 1
-38 20 -55 19 -79 -5 -24 -24 -26 -67 -3 -92 17 -19 68 -25 78 -8 8 13 42 13
50 1 3 -6 -5 -19 -17 -30 -29 -28 -96 -28 -131 -1 -79 63 -37 190 64 190 22 0
47 -8 63 -21z"/>
<path d="M1089 500 l-24 -19 65 0 65 0 -24 19 c-13 11 -31 20 -41 20 -10 0
-28 -9 -41 -20z"/>
</g>
</svg>
